<svg xmlns="http://www.w3.org/2000/svg" xmlns:xlink="http://www.w3.org/1999/xlink" width="1920" zoomAndPan="magnify" viewBox="0 0 1440 809.999993" height="1080" preserveAspectRatio="xMidYMid meet" version="1.0"><defs><filter x="0%" y="0%" width="100%" height="100%" id="a98abddef3"><feColorMatrix values="0 0 0 0 1 0 0 0 0 1 0 0 0 0 1 0 0 0 1 0" color-interpolation-filters="sRGB"/></filter><g/><clipPath id="8585bb4255"><path d="M 0 0 L 107.273438 0 L 107.273438 810 L 0 810 Z M 0 0 " clip-rule="nonzero"/></clipPath><clipPath id="d32d067382"><path d="M 1024.3125 729 L 1437.414062 729 L 1437.414062 810 L 1024.3125 810 Z M 1024.3125 729 " clip-rule="nonzero"/></clipPath><clipPath id="00164483e0"><path d="M 1230.863281 1142.101562 C 1175.71875 1142.101562 1123.789062 1120.636719 1084.824219 1081.589844 C 1045.777344 1042.621094 1024.3125 990.695312 1024.3125 935.550781 C 1024.3125 880.402344 1045.777344 828.476562 1084.824219 789.511719 C 1123.789062 750.464844 1175.71875 729 1230.863281 729 C 1286.007812 729 1337.933594 750.464844 1376.902344 789.511719 C 1415.949219 828.558594 1437.414062 880.402344 1437.414062 935.550781 C 1437.414062 990.695312 1415.949219 1042.621094 1376.902344 1081.589844 C 1337.933594 1120.636719 1286.007812 1142.101562 1230.863281 1142.101562 Z M 1230.863281 741.382812 C 1179.019531 741.382812 1130.230469 761.609375 1093.574219 798.261719 C 1056.921875 834.917969 1036.695312 883.707031 1036.695312 935.550781 C 1036.695312 987.394531 1056.921875 1036.183594 1093.574219 1072.835938 C 1130.230469 1109.492188 1179.019531 1129.71875 1230.863281 1129.71875 C 1282.707031 1129.71875 1331.496094 1109.492188 1368.148438 1072.835938 C 1404.804688 1036.183594 1425.03125 987.394531 1425.03125 935.550781 C 1425.03125 883.707031 1404.804688 834.917969 1368.148438 798.261719 C 1331.496094 761.609375 1282.707031 741.382812 1230.863281 741.382812 Z M 1230.863281 741.382812 " clip-rule="nonzero"/></clipPath><mask id="0a1cbf4040"><g filter="url(#a98abddef3)"><rect x="-144" width="1728" fill="#000000" y="-80.999999" height="971.999992" fill-opacity="0.4"/></g></mask><clipPath id="38f0d2ae89"><path d="M 1.019531 0 L 414.121094 0 L 414.121094 81 L 1.019531 81 Z M 1.019531 0 " clip-rule="nonzero"/></clipPath><clipPath id="4a612b7af8"><path d="M 207.570312 81 C 152.421875 81 100.496094 59.535156 61.53125 20.488281 C 22.484375 -18.476562 1.019531 -70.402344 1.019531 -125.550781 C 1.019531 -180.695312 22.484375 -232.621094 61.53125 -271.589844 C 100.496094 -310.636719 152.421875 -332.101562 207.570312 -332.101562 C 262.714844 -332.101562 314.640625 -310.636719 353.609375 -271.589844 C 392.65625 -232.539062 414.121094 -180.695312 414.121094 -125.550781 C 414.121094 -70.402344 392.65625 -18.476562 353.609375 20.488281 C 314.640625 59.535156 262.714844 81 207.570312 81 Z M 207.570312 -319.71875 C 155.726562 -319.71875 106.9375 -299.492188 70.28125 -262.835938 C 33.628906 -226.183594 13.402344 -177.394531 13.402344 -125.550781 C 13.402344 -73.707031 33.628906 -24.917969 70.28125 11.738281 C 106.9375 48.390625 155.726562 68.617188 207.570312 68.617188 C 259.414062 68.617188 308.203125 48.390625 344.855469 11.738281 C 381.511719 -24.917969 401.738281 -73.707031 401.738281 -125.550781 C 401.738281 -177.394531 381.511719 -226.183594 344.855469 -262.835938 C 308.203125 -299.492188 259.414062 -319.71875 207.570312 -319.71875 Z M 207.570312 -319.71875 " clip-rule="nonzero"/></clipPath><clipPath id="53fa4c0308"><rect x="0" width="415" y="0" height="82"/></clipPath></defs><rect x="-144" width="1728" fill="#ffffff" y="-80.999999" height="971.999992" fill-opacity="1"/><rect x="-144" width="1728" fill="#fffdf7" y="-80.999999" height="971.999992" fill-opacity="1"/><g clip-path="url(#8585bb4255)"><path fill="#b8bb87" d="M -86.082031 -66.628906 L 107.273438 -66.628906 L 107.273438 842.742188 L -86.082031 842.742188 Z M -86.082031 -66.628906 " fill-opacity="1" fill-rule="nonzero"/></g><g fill="#4d4c4c" fill-opacity="1"><g transform="translate(290.235754, 350.596027)"><g><path d="M 104.09375 0 L 90.453125 0 L 73.65625 -36.75 L 22.796875 -36.75 C 20.097656 -30.351562 17.625 -24.003906 15.375 -17.703125 C 13.125 -11.398438 11.300781 -5.5 9.90625 0 L 1.5 0 C 3.195312 -3.394531 5.671875 -8.289062 8.921875 -14.6875 C 12.171875 -21.09375 15.75 -28.445312 19.65625 -36.75 L 51.75 -106.5 L 55.046875 -106.5 Z M 30.453125 -53.546875 C 29.347656 -51.148438 28.242188 -48.75 27.140625 -46.34375 C 26.046875 -43.945312 24.945312 -41.5 23.84375 -39 L 72.59375 -39 L 48.15625 -92.703125 Z M 30.453125 -53.546875 "/></g></g></g><g fill="#4d4c4c" fill-opacity="1"><g transform="translate(396.585775, 350.596027)"><g><path d="M 95.40625 0.75 L 92.09375 0.75 L 14.25 -87.59375 L 14.25 -56.84375 C 14.25 -47.34375 14.421875 -38.664062 14.765625 -30.8125 C 15.117188 -22.96875 15.546875 -16.394531 16.046875 -11.09375 C 16.546875 -5.800781 16.894531 -2.101562 17.09375 0 L 9 0 C 9.394531 -3.5 9.769531 -7.695312 10.125 -12.59375 C 10.476562 -17.5 10.78125 -22.625 11.03125 -27.96875 C 11.28125 -33.320312 11.476562 -38.523438 11.625 -43.578125 C 11.769531 -48.628906 11.84375 -53.050781 11.84375 -56.84375 L 11.84375 -105.75 L 15.15625 -105.75 L 93 -18.453125 L 93 -52.796875 C 93 -59.203125 92.820312 -65.78125 92.46875 -72.53125 C 92.125 -79.28125 91.75 -85.550781 91.34375 -91.34375 C 90.945312 -97.144531 90.550781 -101.695312 90.15625 -105 L 98.25 -105 C 97.945312 -102.894531 97.617188 -99.84375 97.265625 -95.84375 C 96.921875 -91.84375 96.625 -87.34375 96.375 -82.34375 C 96.125 -77.34375 95.898438 -72.269531 95.703125 -67.125 C 95.503906 -61.976562 95.40625 -57.203125 95.40625 -52.796875 Z M 95.40625 0.75 "/></g></g></g><g fill="#4d4c4c" fill-opacity="1"><g transform="translate(503.83578, 350.596027)"><g><path d="M 104.09375 0 L 90.453125 0 L 73.65625 -36.75 L 22.796875 -36.75 C 20.097656 -30.351562 17.625 -24.003906 15.375 -17.703125 C 13.125 -11.398438 11.300781 -5.5 9.90625 0 L 1.5 0 C 3.195312 -3.394531 5.671875 -8.289062 8.921875 -14.6875 C 12.171875 -21.09375 15.75 -28.445312 19.65625 -36.75 L 51.75 -106.5 L 55.046875 -106.5 Z M 30.453125 -53.546875 C 29.347656 -51.148438 28.242188 -48.75 27.140625 -46.34375 C 26.046875 -43.945312 24.945312 -41.5 23.84375 -39 L 72.59375 -39 L 48.15625 -92.703125 Z M 76.953125 -124.046875 L 45.90625 -113.09375 L 45.296875 -114.453125 L 73.65625 -131.84375 Z M 76.953125 -124.046875 "/></g></g></g><g fill="#4d4c4c" fill-opacity="1"><g transform="translate(610.185812, 350.596027)"><g><path d="M 75.75 -7.5 L 74.25 0 L 12.75 0 L 12.75 -105 L 25.5 -105 L 25.5 -2.25 L 36.453125 -2.25 C 45.253906 -2.25 53.050781 -2.75 59.84375 -3.75 C 66.644531 -4.75 71.945312 -6 75.75 -7.5 Z M 75.75 -7.5 "/></g></g><g transform="translate(688.185808, 350.596027)"><g><path d="M 13.5 0 L 13.5 -105 L 26.25 -105 L 26.25 0 Z M 13.5 0 "/></g></g><g transform="translate(727.935806, 350.596027)"><g><path d="M 6 -9 L 8.09375 -16.65625 C 11.894531 -11.550781 16.296875 -7.625 21.296875 -4.875 C 26.296875 -2.125 32 -0.75 38.40625 -0.75 C 42.601562 -0.75 46.453125 -1.472656 49.953125 -2.921875 C 53.453125 -4.367188 56.222656 -6.519531 58.265625 -9.375 C 60.316406 -12.226562 61.34375 -15.703125 61.34375 -19.796875 C 61.34375 -25.203125 59.71875 -29.726562 56.46875 -33.375 C 53.21875 -37.019531 49.242188 -40.195312 44.546875 -42.90625 L 31.65625 -50.25 C 27.550781 -52.644531 23.722656 -55.242188 20.171875 -58.046875 C 16.617188 -60.847656 13.789062 -64.148438 11.6875 -67.953125 C 9.59375 -71.753906 8.546875 -76.300781 8.546875 -81.59375 C 8.546875 -85.300781 9.695312 -89.078125 12 -92.921875 C 14.300781 -96.773438 17.800781 -100 22.5 -102.59375 C 27.195312 -105.195312 33.097656 -106.5 40.203125 -106.5 C 46.296875 -106.5 51.644531 -105.773438 56.25 -104.328125 C 60.851562 -102.878906 65.15625 -100.351562 69.15625 -96.75 L 66.15625 -89.546875 C 63.050781 -94.648438 59.570312 -98.375 55.71875 -100.71875 C 51.875 -103.070312 47.351562 -104.25 42.15625 -104.25 C 35.851562 -104.25 30.773438 -102.695312 26.921875 -99.59375 C 23.078125 -96.5 21.15625 -92.148438 21.15625 -86.546875 C 21.15625 -82.648438 21.925781 -79.328125 23.46875 -76.578125 C 25.019531 -73.828125 27.21875 -71.398438 30.0625 -69.296875 C 32.914062 -67.203125 36.195312 -65.003906 39.90625 -62.703125 L 50.40625 -56.40625 C 54.601562 -53.90625 58.425781 -51.300781 61.875 -48.59375 C 65.320312 -45.894531 68.09375 -42.820312 70.1875 -39.375 C 72.289062 -35.925781 73.34375 -31.800781 73.34375 -27 C 73.34375 -20.894531 71.769531 -15.71875 68.625 -11.46875 C 65.476562 -7.21875 61.253906 -3.992188 55.953125 -1.796875 C 50.648438 0.398438 44.75 1.5 38.25 1.5 C 31.945312 1.5 26.046875 0.625 20.546875 -1.125 C 15.046875 -2.875 10.195312 -5.5 6 -9 Z M 6 -9 "/></g></g></g><g fill="#4d4c4c" fill-opacity="1"><g transform="translate(807.285839, 350.596027)"><g><path d="M 13.5 0 L 13.5 -105 L 26.25 -105 L 26.25 0 Z M 13.5 0 "/></g></g><g transform="translate(847.035837, 350.596027)"><g><path d="M 6 -9 L 8.09375 -16.65625 C 11.894531 -11.550781 16.296875 -7.625 21.296875 -4.875 C 26.296875 -2.125 32 -0.75 38.40625 -0.75 C 42.601562 -0.75 46.453125 -1.472656 49.953125 -2.921875 C 53.453125 -4.367188 56.222656 -6.519531 58.265625 -9.375 C 60.316406 -12.226562 61.34375 -15.703125 61.34375 -19.796875 C 61.34375 -25.203125 59.71875 -29.726562 56.46875 -33.375 C 53.21875 -37.019531 49.242188 -40.195312 44.546875 -42.90625 L 31.65625 -50.25 C 27.550781 -52.644531 23.722656 -55.242188 20.171875 -58.046875 C 16.617188 -60.847656 13.789062 -64.148438 11.6875 -67.953125 C 9.59375 -71.753906 8.546875 -76.300781 8.546875 -81.59375 C 8.546875 -85.300781 9.695312 -89.078125 12 -92.921875 C 14.300781 -96.773438 17.800781 -100 22.5 -102.59375 C 27.195312 -105.195312 33.097656 -106.5 40.203125 -106.5 C 46.296875 -106.5 51.644531 -105.773438 56.25 -104.328125 C 60.851562 -102.878906 65.15625 -100.351562 69.15625 -96.75 L 66.15625 -89.546875 C 63.050781 -94.648438 59.570312 -98.375 55.71875 -100.71875 C 51.875 -103.070312 47.351562 -104.25 42.15625 -104.25 C 35.851562 -104.25 30.773438 -102.695312 26.921875 -99.59375 C 23.078125 -96.5 21.15625 -92.148438 21.15625 -86.546875 C 21.15625 -82.648438 21.925781 -79.328125 23.46875 -76.578125 C 25.019531 -73.828125 27.21875 -71.398438 30.0625 -69.296875 C 32.914062 -67.203125 36.195312 -65.003906 39.90625 -62.703125 L 50.40625 -56.40625 C 54.601562 -53.90625 58.425781 -51.300781 61.875 -48.59375 C 65.320312 -45.894531 68.09375 -42.820312 70.1875 -39.375 C 72.289062 -35.925781 73.34375 -31.800781 73.34375 -27 C 73.34375 -20.894531 71.769531 -15.71875 68.625 -11.46875 C 65.476562 -7.21875 61.253906 -3.992188 55.953125 -1.796875 C 50.648438 0.398438 44.75 1.5 38.25 1.5 C 31.945312 1.5 26.046875 0.625 20.546875 -1.125 C 15.046875 -2.875 10.195312 -5.5 6 -9 Z M 6 -9 "/></g></g></g><g fill="#4d4c4c" fill-opacity="1"><g transform="translate(926.38587, 350.596027)"><g/></g><g transform="translate(960.135868, 350.596027)"><g><path d="M 12.75 0 L 12.75 -105 L 14.546875 -105 C 16.847656 -105 19.796875 -105.023438 23.390625 -105.078125 C 26.992188 -105.128906 30.695312 -105.203125 34.5 -105.296875 C 38.300781 -105.398438 41.601562 -105.453125 44.40625 -105.453125 C 54.90625 -105.453125 63.878906 -104.078125 71.328125 -101.328125 C 78.773438 -98.578125 84.875 -94.800781 89.625 -90 C 94.375 -85.195312 97.847656 -79.695312 100.046875 -73.5 C 102.242188 -67.300781 103.34375 -60.75 103.34375 -53.84375 C 103.34375 -43.945312 101.117188 -34.898438 96.671875 -26.703125 C 92.222656 -18.503906 85.546875 -11.953125 76.640625 -7.046875 C 67.742188 -2.148438 56.597656 0.296875 43.203125 0.296875 C 40.898438 0.296875 38.046875 0.269531 34.640625 0.21875 C 31.242188 0.175781 27.769531 0.128906 24.21875 0.078125 C 20.675781 0.0234375 17.40625 0 14.40625 0 Z M 25.5 -102.453125 L 25.5 -3 C 28.695312 -2.601562 32.195312 -2.378906 36 -2.328125 C 39.800781 -2.273438 42.898438 -2.25 45.296875 -2.25 C 60.597656 -2.25 71.796875 -6.597656 78.890625 -15.296875 C 85.992188 -23.992188 89.597656 -36.34375 89.703125 -52.34375 C 89.796875 -62.445312 87.992188 -71.320312 84.296875 -78.96875 C 80.597656 -86.625 75.222656 -92.578125 68.171875 -96.828125 C 61.117188 -101.078125 52.492188 -103.203125 42.296875 -103.203125 C 39.203125 -103.203125 36.226562 -103.148438 33.375 -103.046875 C 30.519531 -102.953125 27.894531 -102.753906 25.5 -102.453125 Z M 25.5 -102.453125 "/></g></g></g><g fill="#4d4c4c" fill-opacity="1"><g transform="translate(1070.9859, 350.596027)"><g><path d="M 72 -7.5 L 70.5 0 L 12.75 0 L 12.75 -105 L 70.5 -105 L 69 -97.5 C 66.5 -98.394531 63.75 -99.242188 60.75 -100.046875 C 57.75 -100.847656 54.148438 -101.5 49.953125 -102 C 45.753906 -102.5 40.503906 -102.75 34.203125 -102.75 L 25.5 -102.75 L 25.5 -55.796875 L 36.59375 -55.796875 C 44.09375 -55.796875 49.914062 -56.144531 54.0625 -56.84375 C 58.21875 -57.550781 61.195312 -58.101562 63 -58.5 L 63 -51 C 61.195312 -51.5 58.71875 -51.945312 55.5625 -52.34375 C 52.414062 -52.75 49.144531 -53.050781 45.75 -53.25 C 42.351562 -53.445312 39.300781 -53.546875 36.59375 -53.546875 L 25.5 -53.546875 L 25.5 -2.25 L 35.703125 -2.25 C 44.296875 -2.25 51.539062 -2.75 57.4375 -3.75 C 63.34375 -4.75 68.195312 -6 72 -7.5 Z M 72 -7.5 "/></g></g></g><g fill="#4d4c4c" fill-opacity="1"><g transform="translate(250.6381, 488.59602)"><g><path d="M 25.5 0 L 12.75 0 L 12.75 -105 C 14.25 -105 16.296875 -105.023438 18.890625 -105.078125 C 21.492188 -105.128906 24.242188 -105.175781 27.140625 -105.21875 C 30.046875 -105.269531 32.648438 -105.296875 34.953125 -105.296875 C 37.253906 -105.296875 38.753906 -105.296875 39.453125 -105.296875 C 49.046875 -105.296875 56.539062 -103.867188 61.9375 -101.015625 C 67.34375 -98.171875 71.171875 -94.445312 73.421875 -89.84375 C 75.671875 -85.25 76.796875 -80.398438 76.796875 -75.296875 C 76.796875 -69.898438 75.644531 -65.347656 73.34375 -61.640625 C 71.050781 -57.941406 68.253906 -55.039062 64.953125 -52.9375 C 61.648438 -50.84375 58.398438 -49.394531 55.203125 -48.59375 L 90.453125 0 L 75.15625 0 L 41.84375 -46.796875 L 25.5 -46.796875 Z M 25.5 -102.453125 L 25.5 -49.046875 L 34.65625 -49.046875 C 43.25 -49.046875 50.171875 -51.195312 55.421875 -55.5 C 60.671875 -59.800781 63.296875 -66.25 63.296875 -74.84375 C 63.296875 -83.445312 60.742188 -90.296875 55.640625 -95.390625 C 50.546875 -100.492188 43.550781 -103.046875 34.65625 -103.046875 C 32.445312 -103.046875 30.867188 -102.992188 29.921875 -102.890625 C 28.972656 -102.796875 27.5 -102.648438 25.5 -102.453125 Z M 25.5 -102.453125 "/></g></g></g><g fill="#4d4c4c" fill-opacity="1"><g transform="translate(341.838123, 488.59602)"><g><path d="M 72 -7.5 L 70.5 0 L 12.75 0 L 12.75 -105 L 70.5 -105 L 69 -97.5 C 66.5 -98.394531 63.75 -99.242188 60.75 -100.046875 C 57.75 -100.847656 54.148438 -101.5 49.953125 -102 C 45.753906 -102.5 40.503906 -102.75 34.203125 -102.75 L 25.5 -102.75 L 25.5 -55.796875 L 36.59375 -55.796875 C 44.09375 -55.796875 49.914062 -56.144531 54.0625 -56.84375 C 58.21875 -57.550781 61.195312 -58.101562 63 -58.5 L 63 -51 C 61.195312 -51.5 58.71875 -51.945312 55.5625 -52.34375 C 52.414062 -52.75 49.144531 -53.050781 45.75 -53.25 C 42.351562 -53.445312 39.300781 -53.546875 36.59375 -53.546875 L 25.5 -53.546875 L 25.5 -2.25 L 35.703125 -2.25 C 44.296875 -2.25 51.539062 -2.75 57.4375 -3.75 C 63.34375 -4.75 68.195312 -6 72 -7.5 Z M 72 -7.5 "/></g></g></g><g fill="#4d4c4c" fill-opacity="1"><g transform="translate(420.588143, 488.59602)"><g><path d="M 6 -9 L 8.09375 -16.65625 C 11.894531 -11.550781 16.296875 -7.625 21.296875 -4.875 C 26.296875 -2.125 32 -0.75 38.40625 -0.75 C 42.601562 -0.75 46.453125 -1.472656 49.953125 -2.921875 C 53.453125 -4.367188 56.222656 -6.519531 58.265625 -9.375 C 60.316406 -12.226562 61.34375 -15.703125 61.34375 -19.796875 C 61.34375 -25.203125 59.71875 -29.726562 56.46875 -33.375 C 53.21875 -37.019531 49.242188 -40.195312 44.546875 -42.90625 L 31.65625 -50.25 C 27.550781 -52.644531 23.722656 -55.242188 20.171875 -58.046875 C 16.617188 -60.847656 13.789062 -64.148438 11.6875 -67.953125 C 9.59375 -71.753906 8.546875 -76.300781 8.546875 -81.59375 C 8.546875 -85.300781 9.695312 -89.078125 12 -92.921875 C 14.300781 -96.773438 17.800781 -100 22.5 -102.59375 C 27.195312 -105.195312 33.097656 -106.5 40.203125 -106.5 C 46.296875 -106.5 51.644531 -105.773438 56.25 -104.328125 C 60.851562 -102.878906 65.15625 -100.351562 69.15625 -96.75 L 66.15625 -89.546875 C 63.050781 -94.648438 59.570312 -98.375 55.71875 -100.71875 C 51.875 -103.070312 47.351562 -104.25 42.15625 -104.25 C 35.851562 -104.25 30.773438 -102.695312 26.921875 -99.59375 C 23.078125 -96.5 21.15625 -92.148438 21.15625 -86.546875 C 21.15625 -82.648438 21.925781 -79.328125 23.46875 -76.578125 C 25.019531 -73.828125 27.21875 -71.398438 30.0625 -69.296875 C 32.914062 -67.203125 36.195312 -65.003906 39.90625 -62.703125 L 50.40625 -56.40625 C 54.601562 -53.90625 58.425781 -51.300781 61.875 -48.59375 C 65.320312 -45.894531 68.09375 -42.820312 70.1875 -39.375 C 72.289062 -35.925781 73.34375 -31.800781 73.34375 -27 C 73.34375 -20.894531 71.769531 -15.71875 68.625 -11.46875 C 65.476562 -7.21875 61.253906 -3.992188 55.953125 -1.796875 C 50.648438 0.398438 44.75 1.5 38.25 1.5 C 31.945312 1.5 26.046875 0.625 20.546875 -1.125 C 15.046875 -2.875 10.195312 -5.5 6 -9 Z M 6 -9 "/></g></g></g><g fill="#4d4c4c" fill-opacity="1"><g transform="translate(499.938152, 488.59602)"><g><path d="M 87.15625 -105 L 95.25 -105 C 94.851562 -102.300781 94.425781 -98.375 93.96875 -93.21875 C 93.519531 -88.070312 93.144531 -82.472656 92.84375 -76.421875 C 92.550781 -70.367188 92.40625 -64.644531 92.40625 -59.25 L 92.40625 -41.546875 C 92.40625 -27.648438 89.175781 -17.023438 82.71875 -9.671875 C 76.269531 -2.328125 66.644531 1.34375 53.84375 1.34375 C 45.75 1.34375 38.625 0.117188 32.46875 -2.328125 C 26.320312 -4.773438 21.5 -8.875 18 -14.625 C 14.5 -20.375 12.75 -28.148438 12.75 -37.953125 L 12.75 -105 L 25.5 -105 L 25.5 -40.046875 C 25.5 -32.847656 26.523438 -26.625 28.578125 -21.375 C 30.628906 -16.125 34.003906 -12.070312 38.703125 -9.21875 C 43.398438 -6.375 49.695312 -4.953125 57.59375 -4.953125 C 65.5 -4.953125 71.800781 -6.453125 76.5 -9.453125 C 81.195312 -12.453125 84.570312 -16.75 86.625 -22.34375 C 88.675781 -27.945312 89.703125 -34.597656 89.703125 -42.296875 L 89.703125 -59.09375 C 89.703125 -68.300781 89.472656 -76.878906 89.015625 -84.828125 C 88.566406 -92.773438 87.945312 -99.5 87.15625 -105 Z M 87.15625 -105 "/></g></g></g><g fill="#4d4c4c" fill-opacity="1"><g transform="translate(604.93817, 488.59602)"><g><path d="M 75.75 -7.5 L 74.25 0 L 12.75 0 L 12.75 -105 L 25.5 -105 L 25.5 -2.25 L 36.453125 -2.25 C 45.253906 -2.25 53.050781 -2.75 59.84375 -3.75 C 66.644531 -4.75 71.945312 -6 75.75 -7.5 Z M 75.75 -7.5 "/></g></g></g><g fill="#4d4c4c" fill-opacity="1"><g transform="translate(682.938189, 488.59602)"><g><path d="M -0.75 -97.046875 L 0.75 -105 L 84 -105 L 82.34375 -97.046875 C 80.144531 -98.453125 76.671875 -99.753906 71.921875 -100.953125 C 67.171875 -102.148438 60.847656 -102.75 52.953125 -102.75 L 48.75 -102.75 L 48.75 0 L 36 0 L 36 -102.75 L 28.65625 -102.75 C 20.65625 -102.75 14.203125 -102.023438 9.296875 -100.578125 C 4.398438 -99.128906 1.050781 -97.953125 -0.75 -97.046875 Z M -0.75 -97.046875 "/></g></g><g transform="translate(767.688185, 488.59602)"><g><path d="M 104.09375 0 L 90.453125 0 L 73.65625 -36.75 L 22.796875 -36.75 C 20.097656 -30.351562 17.625 -24.003906 15.375 -17.703125 C 13.125 -11.398438 11.300781 -5.5 9.90625 0 L 1.5 0 C 3.195312 -3.394531 5.671875 -8.289062 8.921875 -14.6875 C 12.171875 -21.09375 15.75 -28.445312 19.65625 -36.75 L 51.75 -106.5 L 55.046875 -106.5 Z M 30.453125 -53.546875 C 29.347656 -51.148438 28.242188 -48.75 27.140625 -46.34375 C 26.046875 -43.945312 24.945312 -41.5 23.84375 -39 L 72.59375 -39 L 48.15625 -92.703125 Z M 30.453125 -53.546875 "/></g></g></g><g fill="#4d4c4c" fill-opacity="1"><g transform="translate(874.038217, 488.59602)"><g><path d="M 12.75 0 L 12.75 -105 L 14.546875 -105 C 16.847656 -105 19.796875 -105.023438 23.390625 -105.078125 C 26.992188 -105.128906 30.695312 -105.203125 34.5 -105.296875 C 38.300781 -105.398438 41.601562 -105.453125 44.40625 -105.453125 C 54.90625 -105.453125 63.878906 -104.078125 71.328125 -101.328125 C 78.773438 -98.578125 84.875 -94.800781 89.625 -90 C 94.375 -85.195312 97.847656 -79.695312 100.046875 -73.5 C 102.242188 -67.300781 103.34375 -60.75 103.34375 -53.84375 C 103.34375 -43.945312 101.117188 -34.898438 96.671875 -26.703125 C 92.222656 -18.503906 85.546875 -11.953125 76.640625 -7.046875 C 67.742188 -2.148438 56.597656 0.296875 43.203125 0.296875 C 40.898438 0.296875 38.046875 0.269531 34.640625 0.21875 C 31.242188 0.175781 27.769531 0.128906 24.21875 0.078125 C 20.675781 0.0234375 17.40625 0 14.40625 0 Z M 25.5 -102.453125 L 25.5 -3 C 28.695312 -2.601562 32.195312 -2.378906 36 -2.328125 C 39.800781 -2.273438 42.898438 -2.25 45.296875 -2.25 C 60.597656 -2.25 71.796875 -6.597656 78.890625 -15.296875 C 85.992188 -23.992188 89.597656 -36.34375 89.703125 -52.34375 C 89.796875 -62.445312 87.992188 -71.320312 84.296875 -78.96875 C 80.597656 -86.625 75.222656 -92.578125 68.171875 -96.828125 C 61.117188 -101.078125 52.492188 -103.203125 42.296875 -103.203125 C 39.203125 -103.203125 36.226562 -103.148438 33.375 -103.046875 C 30.519531 -102.953125 27.894531 -102.753906 25.5 -102.453125 Z M 25.5 -102.453125 "/></g></g></g><g fill="#4d4c4c" fill-opacity="1"><g transform="translate(984.888248, 488.59602)"><g><path d="M 7.5 -52.5 C 7.5 -60.101562 8.820312 -67.175781 11.46875 -73.71875 C 14.125 -80.269531 17.898438 -85.992188 22.796875 -90.890625 C 27.703125 -95.796875 33.503906 -99.625 40.203125 -102.375 C 46.898438 -105.125 54.347656 -106.5 62.546875 -106.5 C 73.242188 -106.5 82.71875 -104.222656 90.96875 -99.671875 C 99.21875 -95.117188 105.71875 -88.742188 110.46875 -80.546875 C 115.21875 -72.347656 117.59375 -62.847656 117.59375 -52.046875 C 117.59375 -44.347656 116.164062 -37.25 113.3125 -30.75 C 110.46875 -24.25 106.519531 -18.570312 101.46875 -13.71875 C 96.425781 -8.875 90.578125 -5.125 83.921875 -2.46875 C 77.273438 0.175781 70.148438 1.5 62.546875 1.5 C 51.953125 1.5 42.503906 -0.773438 34.203125 -5.328125 C 25.898438 -9.878906 19.375 -16.226562 14.625 -24.375 C 9.875 -32.519531 7.5 -41.894531 7.5 -52.5 Z M 21 -52.046875 C 21 -45.347656 22.046875 -38.921875 24.140625 -32.765625 C 26.242188 -26.617188 29.21875 -21.144531 33.0625 -16.34375 C 36.914062 -11.550781 41.492188 -7.753906 46.796875 -4.953125 C 52.097656 -2.148438 57.945312 -0.75 64.34375 -0.75 C 71.144531 -0.75 77.019531 -2.148438 81.96875 -4.953125 C 86.925781 -7.753906 91.050781 -11.578125 94.34375 -16.421875 C 97.644531 -21.273438 100.09375 -26.800781 101.6875 -33 C 103.289062 -39.195312 104.09375 -45.695312 104.09375 -52.5 C 104.09375 -62.5 102.242188 -71.375 98.546875 -79.125 C 94.847656 -86.875 89.722656 -93 83.171875 -97.5 C 76.617188 -102 69.09375 -104.25 60.59375 -104.25 C 52 -104.25 44.75 -101.898438 38.84375 -97.203125 C 32.945312 -92.503906 28.5 -86.226562 25.5 -78.375 C 22.5 -70.519531 21 -61.742188 21 -52.046875 Z M 21 -52.046875 "/></g></g></g><g fill="#4d4c4c" fill-opacity="1"><g transform="translate(1109.988279, 488.59602)"><g><path d="M 6 -9 L 8.09375 -16.65625 C 11.894531 -11.550781 16.296875 -7.625 21.296875 -4.875 C 26.296875 -2.125 32 -0.75 38.40625 -0.75 C 42.601562 -0.75 46.453125 -1.472656 49.953125 -2.921875 C 53.453125 -4.367188 56.222656 -6.519531 58.265625 -9.375 C 60.316406 -12.226562 61.34375 -15.703125 61.34375 -19.796875 C 61.34375 -25.203125 59.71875 -29.726562 56.46875 -33.375 C 53.21875 -37.019531 49.242188 -40.195312 44.546875 -42.90625 L 31.65625 -50.25 C 27.550781 -52.644531 23.722656 -55.242188 20.171875 -58.046875 C 16.617188 -60.847656 13.789062 -64.148438 11.6875 -67.953125 C 9.59375 -71.753906 8.546875 -76.300781 8.546875 -81.59375 C 8.546875 -85.300781 9.695312 -89.078125 12 -92.921875 C 14.300781 -96.773438 17.800781 -100 22.5 -102.59375 C 27.195312 -105.195312 33.097656 -106.5 40.203125 -106.5 C 46.296875 -106.5 51.644531 -105.773438 56.25 -104.328125 C 60.851562 -102.878906 65.15625 -100.351562 69.15625 -96.75 L 66.15625 -89.546875 C 63.050781 -94.648438 59.570312 -98.375 55.71875 -100.71875 C 51.875 -103.070312 47.351562 -104.25 42.15625 -104.25 C 35.851562 -104.25 30.773438 -102.695312 26.921875 -99.59375 C 23.078125 -96.5 21.15625 -92.148438 21.15625 -86.546875 C 21.15625 -82.648438 21.925781 -79.328125 23.46875 -76.578125 C 25.019531 -73.828125 27.21875 -71.398438 30.0625 -69.296875 C 32.914062 -67.203125 36.195312 -65.003906 39.90625 -62.703125 L 50.40625 -56.40625 C 54.601562 -53.90625 58.425781 -51.300781 61.875 -48.59375 C 65.320312 -45.894531 68.09375 -42.820312 70.1875 -39.375 C 72.289062 -35.925781 73.34375 -31.800781 73.34375 -27 C 73.34375 -20.894531 71.769531 -15.71875 68.625 -11.46875 C 65.476562 -7.21875 61.253906 -3.992188 55.953125 -1.796875 C 50.648438 0.398438 44.75 1.5 38.25 1.5 C 31.945312 1.5 26.046875 0.625 20.546875 -1.125 C 15.046875 -2.875 10.195312 -5.5 6 -9 Z M 6 -9 "/></g></g></g><g clip-path="url(#d32d067382)"><g clip-path="url(#00164483e0)"><path fill="#ffffff" d="M 1024.3125 729 L 1437.414062 729 L 1437.414062 1142.101562 L 1024.3125 1142.101562 Z M 1024.3125 729 " fill-opacity="1" fill-rule="nonzero"/></g></g><g mask="url(#0a1cbf4040)"><g transform="matrix(1, 0, 0, 1, 126, 0.000000000000039746)"><g clip-path="url(#53fa4c0308)"><g clip-path="url(#38f0d2ae89)"><g clip-path="url(#4a612b7af8)"><path fill="#b8bb87" d="M 1.019531 -332.101562 L 414.121094 -332.101562 L 414.121094 81 L 1.019531 81 Z M 1.019531 -332.101562 " fill-opacity="1" fill-rule="nonzero"/></g></g></g></g></g><g fill="#000000" fill-opacity="1"><g transform="translate(553.357892, 600.772838)"><g><path d="M 17.265625 -9.515625 L 5.703125 -9.515625 L 5.703125 0 L 3.15625 0 L 3.15625 -21.015625 L 5.703125 -21.015625 L 5.703125 -11.921875 L 17.265625 -11.921875 L 17.265625 -21.015625 L 19.828125 -21.015625 L 19.828125 0 L 17.265625 0 Z M 17.265625 -9.515625 "/></g></g></g><g fill="#000000" fill-opacity="1"><g transform="translate(576.325794, 600.772838)"><g><path d="M 13.578125 -1.46875 C 12.910156 -0.875 12.117188 -0.429688 11.203125 -0.140625 C 10.296875 0.148438 9.394531 0.296875 8.5 0.296875 C 7.394531 0.296875 6.394531 0.132812 5.5 -0.1875 C 4.613281 -0.519531 3.851562 -0.992188 3.21875 -1.609375 C 2.59375 -2.234375 2.109375 -2.984375 1.765625 -3.859375 C 1.429688 -4.734375 1.265625 -5.695312 1.265625 -6.75 C 1.265625 -7.738281 1.414062 -8.660156 1.71875 -9.515625 C 2.03125 -10.378906 2.484375 -11.125 3.078125 -11.75 C 3.671875 -12.382812 4.394531 -12.882812 5.25 -13.25 C 6.113281 -13.625 7.109375 -13.8125 8.234375 -13.8125 C 9.085938 -13.8125 9.898438 -13.660156 10.671875 -13.359375 C 11.441406 -13.054688 12.109375 -12.632812 12.671875 -12.09375 C 13.234375 -11.5625 13.675781 -10.914062 14 -10.15625 C 14.332031 -9.394531 14.5 -8.550781 14.5 -7.625 C 14.5 -7.007812 14.453125 -6.46875 14.359375 -6 L 3.96875 -6 C 4.0625 -4.71875 4.539062 -3.722656 5.40625 -3.015625 C 6.269531 -2.304688 7.359375 -1.953125 8.671875 -1.953125 C 9.554688 -1.953125 10.359375 -2.085938 11.078125 -2.359375 C 11.796875 -2.628906 12.378906 -2.960938 12.828125 -3.359375 Z M 8.109375 -11.5625 C 6.867188 -11.5625 5.878906 -11.21875 5.140625 -10.53125 C 4.398438 -9.851562 3.957031 -8.992188 3.8125 -7.953125 L 12.015625 -7.953125 C 11.953125 -9.078125 11.578125 -9.957031 10.890625 -10.59375 C 10.210938 -11.238281 9.285156 -11.5625 8.109375 -11.5625 Z M 8.109375 -11.5625 "/></g></g></g><g fill="#000000" fill-opacity="1"><g transform="translate(591.937961, 600.772838)"><g><path d="M 13.6875 -1.953125 C 13.113281 -1.210938 12.363281 -0.648438 11.4375 -0.265625 C 10.519531 0.109375 9.539062 0.296875 8.5 0.296875 C 7.414062 0.296875 6.429688 0.132812 5.546875 -0.1875 C 4.671875 -0.519531 3.910156 -0.992188 3.265625 -1.609375 C 2.628906 -2.234375 2.132812 -2.984375 1.78125 -3.859375 C 1.4375 -4.734375 1.265625 -5.695312 1.265625 -6.75 C 1.265625 -7.738281 1.429688 -8.660156 1.765625 -9.515625 C 2.109375 -10.378906 2.582031 -11.125 3.1875 -11.75 C 3.800781 -12.382812 4.523438 -12.882812 5.359375 -13.25 C 6.191406 -13.625 7.109375 -13.8125 8.109375 -13.8125 C 9.191406 -13.8125 10.1875 -13.675781 11.09375 -13.40625 C 12.007812 -13.132812 12.785156 -12.679688 13.421875 -12.046875 L 12.3125 -10.15625 C 11.726562 -10.675781 11.109375 -11.039062 10.453125 -11.25 C 9.804688 -11.457031 9.132812 -11.5625 8.4375 -11.5625 C 7.832031 -11.5625 7.25 -11.445312 6.6875 -11.21875 C 6.132812 -10.988281 5.640625 -10.660156 5.203125 -10.234375 C 4.773438 -9.816406 4.4375 -9.3125 4.1875 -8.71875 C 3.9375 -8.132812 3.8125 -7.476562 3.8125 -6.75 C 3.8125 -6.007812 3.941406 -5.34375 4.203125 -4.75 C 4.460938 -4.164062 4.8125 -3.660156 5.25 -3.234375 C 5.695312 -2.816406 6.210938 -2.5 6.796875 -2.28125 C 7.390625 -2.0625 8.015625 -1.953125 8.671875 -1.953125 C 9.492188 -1.953125 10.226562 -2.109375 10.875 -2.421875 C 11.53125 -2.742188 12.085938 -3.164062 12.546875 -3.6875 Z M 13.6875 -1.953125 "/></g></g></g><g fill="#000000" fill-opacity="1"><g transform="translate(606.589373, 600.772838)"><g><path d="M 2.15625 -21.015625 L 4.5625 -21.015625 L 4.5625 -11.953125 C 5.0625 -12.472656 5.707031 -12.898438 6.5 -13.234375 C 7.289062 -13.578125 8.117188 -13.75 8.984375 -13.75 C 10.742188 -13.75 12.117188 -13.28125 13.109375 -12.34375 C 14.097656 -11.40625 14.59375 -9.875 14.59375 -7.75 L 14.59375 0 L 12.1875 0 L 12.1875 -7.421875 C 12.1875 -10.140625 10.925781 -11.5 8.40625 -11.5 C 7.644531 -11.5 6.921875 -11.332031 6.234375 -11 C 5.546875 -10.675781 4.988281 -10.273438 4.5625 -9.796875 L 4.5625 0 L 2.15625 0 Z M 2.15625 -21.015625 "/></g></g></g><g fill="#000000" fill-opacity="1"><g transform="translate(623.072217, 600.772838)"><g><path d="M 1.265625 -6.75 C 1.265625 -7.769531 1.429688 -8.710938 1.765625 -9.578125 C 2.109375 -10.441406 2.59375 -11.1875 3.21875 -11.8125 C 3.851562 -12.445312 4.613281 -12.9375 5.5 -13.28125 C 6.394531 -13.632812 7.382812 -13.8125 8.46875 -13.8125 C 9.550781 -13.8125 10.53125 -13.632812 11.40625 -13.28125 C 12.289062 -12.9375 13.046875 -12.445312 13.671875 -11.8125 C 14.304688 -11.1875 14.796875 -10.441406 15.140625 -9.578125 C 15.492188 -8.710938 15.671875 -7.769531 15.671875 -6.75 C 15.671875 -5.726562 15.492188 -4.785156 15.140625 -3.921875 C 14.796875 -3.066406 14.304688 -2.320312 13.671875 -1.6875 C 13.046875 -1.0625 12.289062 -0.570312 11.40625 -0.21875 C 10.53125 0.125 9.550781 0.296875 8.46875 0.296875 C 7.382812 0.296875 6.394531 0.125 5.5 -0.21875 C 4.613281 -0.570312 3.851562 -1.0625 3.21875 -1.6875 C 2.59375 -2.320312 2.109375 -3.066406 1.765625 -3.921875 C 1.429688 -4.785156 1.265625 -5.726562 1.265625 -6.75 Z M 3.8125 -6.75 C 3.8125 -6.050781 3.925781 -5.40625 4.15625 -4.8125 C 4.382812 -4.226562 4.703125 -3.722656 5.109375 -3.296875 C 5.523438 -2.878906 6.019531 -2.550781 6.59375 -2.3125 C 7.164062 -2.070312 7.789062 -1.953125 8.46875 -1.953125 C 9.144531 -1.953125 9.769531 -2.066406 10.34375 -2.296875 C 10.914062 -2.523438 11.40625 -2.847656 11.8125 -3.265625 C 12.226562 -3.691406 12.550781 -4.195312 12.78125 -4.78125 C 13.007812 -5.375 13.125 -6.03125 13.125 -6.75 C 13.125 -7.457031 13.007812 -8.101562 12.78125 -8.6875 C 12.550781 -9.28125 12.226562 -9.785156 11.8125 -10.203125 C 11.40625 -10.628906 10.914062 -10.960938 10.34375 -11.203125 C 9.769531 -11.441406 9.144531 -11.5625 8.46875 -11.5625 C 7.8125 -11.5625 7.195312 -11.445312 6.625 -11.21875 C 6.050781 -10.988281 5.554688 -10.660156 5.140625 -10.234375 C 4.734375 -9.816406 4.410156 -9.3125 4.171875 -8.71875 C 3.929688 -8.132812 3.8125 -7.476562 3.8125 -6.75 Z M 3.8125 -6.75 "/></g></g></g><g fill="#000000" fill-opacity="1"><g transform="translate(640.035439, 600.772838)"><g/></g></g><g fill="#000000" fill-opacity="1"><g transform="translate(646.790703, 600.772838)"><g><path d="M 2.15625 -13.515625 L 4.5625 -13.515625 L 4.5625 -11.921875 C 5.019531 -12.460938 5.664062 -12.910156 6.5 -13.265625 C 7.332031 -13.628906 8.21875 -13.8125 9.15625 -13.8125 C 10.113281 -13.8125 10.976562 -13.640625 11.75 -13.296875 C 12.519531 -12.960938 13.175781 -12.492188 13.71875 -11.890625 C 14.257812 -11.285156 14.675781 -10.5625 14.96875 -9.71875 C 15.257812 -8.882812 15.40625 -7.96875 15.40625 -6.96875 C 15.40625 -5.945312 15.238281 -4.988281 14.90625 -4.09375 C 14.582031 -3.207031 14.109375 -2.4375 13.484375 -1.78125 C 12.859375 -1.132812 12.113281 -0.625 11.25 -0.25 C 10.394531 0.113281 9.4375 0.296875 8.375 0.296875 C 7.65625 0.296875 6.957031 0.21875 6.28125 0.0625 C 5.613281 -0.0820312 5.039062 -0.3125 4.5625 -0.625 L 4.5625 6 L 2.15625 6 Z M 8.46875 -11.5625 C 7.664062 -11.5625 6.921875 -11.378906 6.234375 -11.015625 C 5.546875 -10.660156 4.988281 -10.222656 4.5625 -9.703125 L 4.5625 -3 C 5.164062 -2.601562 5.753906 -2.328125 6.328125 -2.171875 C 6.910156 -2.023438 7.523438 -1.953125 8.171875 -1.953125 C 8.890625 -1.953125 9.535156 -2.078125 10.109375 -2.328125 C 10.691406 -2.578125 11.179688 -2.914062 11.578125 -3.34375 C 11.984375 -3.78125 12.296875 -4.296875 12.515625 -4.890625 C 12.742188 -5.492188 12.859375 -6.15625 12.859375 -6.875 C 12.859375 -7.550781 12.757812 -8.175781 12.5625 -8.75 C 12.375 -9.320312 12.085938 -9.816406 11.703125 -10.234375 C 11.328125 -10.660156 10.867188 -10.988281 10.328125 -11.21875 C 9.785156 -11.445312 9.164062 -11.5625 8.46875 -11.5625 Z M 8.46875 -11.5625 "/></g></g></g><g fill="#000000" fill-opacity="1"><g transform="translate(663.483706, 600.772838)"><g><path d="M 1.265625 -6.75 C 1.265625 -7.769531 1.429688 -8.710938 1.765625 -9.578125 C 2.109375 -10.441406 2.59375 -11.1875 3.21875 -11.8125 C 3.851562 -12.445312 4.613281 -12.9375 5.5 -13.28125 C 6.394531 -13.632812 7.382812 -13.8125 8.46875 -13.8125 C 9.550781 -13.8125 10.53125 -13.632812 11.40625 -13.28125 C 12.289062 -12.9375 13.046875 -12.445312 13.671875 -11.8125 C 14.304688 -11.1875 14.796875 -10.441406 15.140625 -9.578125 C 15.492188 -8.710938 15.671875 -7.769531 15.671875 -6.75 C 15.671875 -5.726562 15.492188 -4.785156 15.140625 -3.921875 C 14.796875 -3.066406 14.304688 -2.320312 13.671875 -1.6875 C 13.046875 -1.0625 12.289062 -0.570312 11.40625 -0.21875 C 10.53125 0.125 9.550781 0.296875 8.46875 0.296875 C 7.382812 0.296875 6.394531 0.125 5.5 -0.21875 C 4.613281 -0.570312 3.851562 -1.0625 3.21875 -1.6875 C 2.59375 -2.320312 2.109375 -3.066406 1.765625 -3.921875 C 1.429688 -4.785156 1.265625 -5.726562 1.265625 -6.75 Z M 3.8125 -6.75 C 3.8125 -6.050781 3.925781 -5.40625 4.15625 -4.8125 C 4.382812 -4.226562 4.703125 -3.722656 5.109375 -3.296875 C 5.523438 -2.878906 6.019531 -2.550781 6.59375 -2.3125 C 7.164062 -2.070312 7.789062 -1.953125 8.46875 -1.953125 C 9.144531 -1.953125 9.769531 -2.066406 10.34375 -2.296875 C 10.914062 -2.523438 11.40625 -2.847656 11.8125 -3.265625 C 12.226562 -3.691406 12.550781 -4.195312 12.78125 -4.78125 C 13.007812 -5.375 13.125 -6.03125 13.125 -6.75 C 13.125 -7.457031 13.007812 -8.101562 12.78125 -8.6875 C 12.550781 -9.28125 12.226562 -9.785156 11.8125 -10.203125 C 11.40625 -10.628906 10.914062 -10.960938 10.34375 -11.203125 C 9.769531 -11.441406 9.144531 -11.5625 8.46875 -11.5625 C 7.8125 -11.5625 7.195312 -11.445312 6.625 -11.21875 C 6.050781 -10.988281 5.554688 -10.660156 5.140625 -10.234375 C 4.734375 -9.816406 4.410156 -9.3125 4.171875 -8.71875 C 3.929688 -8.132812 3.8125 -7.476562 3.8125 -6.75 Z M 3.8125 -6.75 "/></g></g></g><g fill="#000000" fill-opacity="1"><g transform="translate(680.446928, 600.772838)"><g><path d="M 2.15625 -13.515625 L 4.5625 -13.515625 L 4.5625 -11.921875 C 4.90625 -12.441406 5.34375 -12.875 5.875 -13.21875 C 6.40625 -13.570312 7.097656 -13.75 7.953125 -13.75 C 8.515625 -13.75 8.953125 -13.703125 9.265625 -13.609375 C 9.578125 -13.523438 9.84375 -13.40625 10.0625 -13.25 L 9.21875 -10.984375 C 8.875 -11.191406 8.582031 -11.328125 8.34375 -11.390625 C 8.101562 -11.460938 7.785156 -11.5 7.390625 -11.5 C 6.609375 -11.5 6.003906 -11.300781 5.578125 -10.90625 C 5.160156 -10.519531 4.820312 -10.078125 4.5625 -9.578125 L 4.5625 0 L 2.15625 0 Z M 2.15625 -13.515625 "/></g></g></g><g fill="#000000" fill-opacity="1"><g transform="translate(690.654886, 600.772838)"><g/></g></g><g fill="#000000" fill-opacity="1"><g transform="translate(697.41015, 600.772838)"><g><path d="M 18.671875 0 L 5.5625 -16.515625 L 5.5625 0 L 3.15625 0 L 3.15625 -21.015625 L 5.203125 -21.015625 L 18.3125 -4.4375 L 18.3125 -21.015625 L 20.71875 -21.015625 L 20.71875 0 Z M 18.671875 0 "/></g></g></g><g fill="#000000" fill-opacity="1"><g transform="translate(721.278748, 600.772838)"><g><path d="M 2.25 -12.578125 C 2.851562 -12.960938 3.546875 -13.265625 4.328125 -13.484375 C 5.109375 -13.703125 5.914062 -13.8125 6.75 -13.8125 C 8.675781 -13.8125 10.023438 -13.332031 10.796875 -12.375 C 11.566406 -11.414062 11.953125 -10.050781 11.953125 -8.28125 L 11.953125 0 L 9.671875 0 L 9.671875 -1.734375 C 9.265625 -1.222656 8.722656 -0.769531 8.046875 -0.375 C 7.367188 0.0078125 6.46875 0.203125 5.34375 0.203125 C 4.101562 0.203125 3.101562 -0.160156 2.34375 -0.890625 C 1.582031 -1.617188 1.203125 -2.644531 1.203125 -3.96875 C 1.203125 -4.644531 1.332031 -5.253906 1.59375 -5.796875 C 1.851562 -6.335938 2.207031 -6.785156 2.65625 -7.140625 C 3.101562 -7.503906 3.640625 -7.78125 4.265625 -7.96875 C 4.898438 -8.164062 5.582031 -8.265625 6.3125 -8.265625 C 6.832031 -8.265625 7.40625 -8.203125 8.03125 -8.078125 C 8.664062 -7.953125 9.210938 -7.722656 9.671875 -7.390625 C 9.671875 -8.003906 9.632812 -8.578125 9.5625 -9.109375 C 9.488281 -9.640625 9.347656 -10.085938 9.140625 -10.453125 C 8.929688 -10.828125 8.617188 -11.117188 8.203125 -11.328125 C 7.796875 -11.546875 7.265625 -11.65625 6.609375 -11.65625 C 5.765625 -11.65625 5.066406 -11.554688 4.515625 -11.359375 C 3.960938 -11.171875 3.421875 -10.9375 2.890625 -10.65625 Z M 6.1875 -1.953125 C 7.0625 -1.953125 7.773438 -2.140625 8.328125 -2.515625 C 8.878906 -2.898438 9.328125 -3.289062 9.671875 -3.6875 L 9.671875 -5.40625 C 8.828125 -6.007812 7.816406 -6.3125 6.640625 -6.3125 C 6.273438 -6.3125 5.914062 -6.265625 5.5625 -6.171875 C 5.21875 -6.078125 4.910156 -5.941406 4.640625 -5.765625 C 4.367188 -5.585938 4.148438 -5.359375 3.984375 -5.078125 C 3.828125 -4.796875 3.75 -4.460938 3.75 -4.078125 C 3.75 -3.441406 3.957031 -2.925781 4.375 -2.53125 C 4.800781 -2.144531 5.40625 -1.953125 6.1875 -1.953125 Z M 6.1875 -1.953125 "/></g></g></g><g fill="#000000" fill-opacity="1"><g transform="translate(735.089511, 600.772838)"><g><path d="M 1.859375 -17.265625 L 4.265625 -17.265625 L 4.265625 -13.515625 L 9.21875 -13.515625 L 9.21875 -11.265625 L 4.265625 -11.265625 L 4.265625 -5.375 C 4.265625 -4.289062 4.445312 -3.457031 4.8125 -2.875 C 5.1875 -2.300781 5.804688 -2.015625 6.671875 -2.015625 C 7.128906 -2.015625 7.535156 -2.09375 7.890625 -2.25 C 8.253906 -2.414062 8.554688 -2.585938 8.796875 -2.765625 L 9.546875 -0.90625 C 9.191406 -0.601562 8.71875 -0.335938 8.125 -0.109375 C 7.53125 0.117188 6.851562 0.234375 6.09375 0.234375 C 4.570312 0.234375 3.484375 -0.222656 2.828125 -1.140625 C 2.179688 -2.054688 1.859375 -3.390625 1.859375 -5.140625 Z M 1.859375 -17.265625 "/></g></g></g><g fill="#000000" fill-opacity="1"><g transform="translate(745.687769, 600.772838)"><g><path d="M 2.25 -12.578125 C 2.851562 -12.960938 3.546875 -13.265625 4.328125 -13.484375 C 5.109375 -13.703125 5.914062 -13.8125 6.75 -13.8125 C 8.675781 -13.8125 10.023438 -13.332031 10.796875 -12.375 C 11.566406 -11.414062 11.953125 -10.050781 11.953125 -8.28125 L 11.953125 0 L 9.671875 0 L 9.671875 -1.734375 C 9.265625 -1.222656 8.722656 -0.769531 8.046875 -0.375 C 7.367188 0.0078125 6.46875 0.203125 5.34375 0.203125 C 4.101562 0.203125 3.101562 -0.160156 2.34375 -0.890625 C 1.582031 -1.617188 1.203125 -2.644531 1.203125 -3.96875 C 1.203125 -4.644531 1.332031 -5.253906 1.59375 -5.796875 C 1.851562 -6.335938 2.207031 -6.785156 2.65625 -7.140625 C 3.101562 -7.503906 3.640625 -7.78125 4.265625 -7.96875 C 4.898438 -8.164062 5.582031 -8.265625 6.3125 -8.265625 C 6.832031 -8.265625 7.40625 -8.203125 8.03125 -8.078125 C 8.664062 -7.953125 9.210938 -7.722656 9.671875 -7.390625 C 9.671875 -8.003906 9.632812 -8.578125 9.5625 -9.109375 C 9.488281 -9.640625 9.347656 -10.085938 9.140625 -10.453125 C 8.929688 -10.828125 8.617188 -11.117188 8.203125 -11.328125 C 7.796875 -11.546875 7.265625 -11.65625 6.609375 -11.65625 C 5.765625 -11.65625 5.066406 -11.554688 4.515625 -11.359375 C 3.960938 -11.171875 3.421875 -10.9375 2.890625 -10.65625 Z M 6.1875 -1.953125 C 7.0625 -1.953125 7.773438 -2.140625 8.328125 -2.515625 C 8.878906 -2.898438 9.328125 -3.289062 9.671875 -3.6875 L 9.671875 -5.40625 C 8.828125 -6.007812 7.816406 -6.3125 6.640625 -6.3125 C 6.273438 -6.3125 5.914062 -6.265625 5.5625 -6.171875 C 5.21875 -6.078125 4.910156 -5.941406 4.640625 -5.765625 C 4.367188 -5.585938 4.148438 -5.359375 3.984375 -5.078125 C 3.828125 -4.796875 3.75 -4.460938 3.75 -4.078125 C 3.75 -3.441406 3.957031 -2.925781 4.375 -2.53125 C 4.800781 -2.144531 5.40625 -1.953125 6.1875 -1.953125 Z M 6.1875 -1.953125 "/></g></g></g><g fill="#000000" fill-opacity="1"><g transform="translate(759.498522, 600.772838)"><g><path d="M 2.15625 -21.015625 L 4.5625 -21.015625 L 4.5625 -4.6875 C 4.5625 -3.757812 4.679688 -3.082031 4.921875 -2.65625 C 5.160156 -2.226562 5.570312 -2.015625 6.15625 -2.015625 C 6.5 -2.015625 6.8125 -2.070312 7.09375 -2.1875 C 7.382812 -2.3125 7.644531 -2.453125 7.875 -2.609375 L 8.40625 -0.78125 C 8.050781 -0.5 7.609375 -0.257812 7.078125 -0.0625 C 6.546875 0.132812 5.925781 0.234375 5.21875 0.234375 C 3.175781 0.234375 2.15625 -1.046875 2.15625 -3.609375 Z M 2.15625 -21.015625 "/></g></g></g><g fill="#000000" fill-opacity="1"><g transform="translate(768.205301, 600.772838)"><g><path d="M 2.828125 -13.515625 L 5.21875 -13.515625 L 5.21875 0 L 2.828125 0 Z M 2.515625 -18.59375 C 2.515625 -19.03125 2.671875 -19.378906 2.984375 -19.640625 C 3.296875 -19.898438 3.660156 -20.03125 4.078125 -20.03125 C 4.460938 -20.03125 4.804688 -19.898438 5.109375 -19.640625 C 5.410156 -19.378906 5.5625 -19.03125 5.5625 -18.59375 C 5.5625 -18.09375 5.410156 -17.707031 5.109375 -17.4375 C 4.804688 -17.164062 4.460938 -17.03125 4.078125 -17.03125 C 3.660156 -17.03125 3.296875 -17.164062 2.984375 -17.4375 C 2.671875 -17.707031 2.515625 -18.09375 2.515625 -18.59375 Z M 2.515625 -18.59375 "/></g></g></g><g fill="#000000" fill-opacity="1"><g transform="translate(776.251572, 600.772838)"><g><path d="M 2.25 -12.578125 C 2.851562 -12.960938 3.546875 -13.265625 4.328125 -13.484375 C 5.109375 -13.703125 5.914062 -13.8125 6.75 -13.8125 C 8.675781 -13.8125 10.023438 -13.332031 10.796875 -12.375 C 11.566406 -11.414062 11.953125 -10.050781 11.953125 -8.28125 L 11.953125 0 L 9.671875 0 L 9.671875 -1.734375 C 9.265625 -1.222656 8.722656 -0.769531 8.046875 -0.375 C 7.367188 0.0078125 6.46875 0.203125 5.34375 0.203125 C 4.101562 0.203125 3.101562 -0.160156 2.34375 -0.890625 C 1.582031 -1.617188 1.203125 -2.644531 1.203125 -3.96875 C 1.203125 -4.644531 1.332031 -5.253906 1.59375 -5.796875 C 1.851562 -6.335938 2.207031 -6.785156 2.65625 -7.140625 C 3.101562 -7.503906 3.640625 -7.78125 4.265625 -7.96875 C 4.898438 -8.164062 5.582031 -8.265625 6.3125 -8.265625 C 6.832031 -8.265625 7.40625 -8.203125 8.03125 -8.078125 C 8.664062 -7.953125 9.210938 -7.722656 9.671875 -7.390625 C 9.671875 -8.003906 9.632812 -8.578125 9.5625 -9.109375 C 9.488281 -9.640625 9.347656 -10.085938 9.140625 -10.453125 C 8.929688 -10.828125 8.617188 -11.117188 8.203125 -11.328125 C 7.796875 -11.546875 7.265625 -11.65625 6.609375 -11.65625 C 5.765625 -11.65625 5.066406 -11.554688 4.515625 -11.359375 C 3.960938 -11.171875 3.421875 -10.9375 2.890625 -10.65625 Z M 6.1875 -1.953125 C 7.0625 -1.953125 7.773438 -2.140625 8.328125 -2.515625 C 8.878906 -2.898438 9.328125 -3.289062 9.671875 -3.6875 L 9.671875 -5.40625 C 8.828125 -6.007812 7.816406 -6.3125 6.640625 -6.3125 C 6.273438 -6.3125 5.914062 -6.265625 5.5625 -6.171875 C 5.21875 -6.078125 4.910156 -5.941406 4.640625 -5.765625 C 4.367188 -5.585938 4.148438 -5.359375 3.984375 -5.078125 C 3.828125 -4.796875 3.75 -4.460938 3.75 -4.078125 C 3.75 -3.441406 3.957031 -2.925781 4.375 -2.53125 C 4.800781 -2.144531 5.40625 -1.953125 6.1875 -1.953125 Z M 6.1875 -1.953125 "/></g></g></g><g fill="#000000" fill-opacity="1"><g transform="translate(790.062348, 600.772838)"><g/></g></g><g fill="#000000" fill-opacity="1"><g transform="translate(796.817612, 600.772838)"><g><path d="M 3.15625 -21.015625 L 5.703125 -21.015625 L 5.703125 -2.40625 L 16.0625 -2.40625 L 16.0625 0 L 3.15625 0 Z M 3.15625 -21.015625 "/></g></g></g><g fill="#000000" fill-opacity="1"><g transform="translate(813.330474, 600.772838)"><g><path d="M 1.265625 -6.75 C 1.265625 -7.769531 1.429688 -8.710938 1.765625 -9.578125 C 2.109375 -10.441406 2.59375 -11.1875 3.21875 -11.8125 C 3.851562 -12.445312 4.613281 -12.9375 5.5 -13.28125 C 6.394531 -13.632812 7.382812 -13.8125 8.46875 -13.8125 C 9.550781 -13.8125 10.53125 -13.632812 11.40625 -13.28125 C 12.289062 -12.9375 13.046875 -12.445312 13.671875 -11.8125 C 14.304688 -11.1875 14.796875 -10.441406 15.140625 -9.578125 C 15.492188 -8.710938 15.671875 -7.769531 15.671875 -6.75 C 15.671875 -5.726562 15.492188 -4.785156 15.140625 -3.921875 C 14.796875 -3.066406 14.304688 -2.320312 13.671875 -1.6875 C 13.046875 -1.0625 12.289062 -0.570312 11.40625 -0.21875 C 10.53125 0.125 9.550781 0.296875 8.46875 0.296875 C 7.382812 0.296875 6.394531 0.125 5.5 -0.21875 C 4.613281 -0.570312 3.851562 -1.0625 3.21875 -1.6875 C 2.59375 -2.320312 2.109375 -3.066406 1.765625 -3.921875 C 1.429688 -4.785156 1.265625 -5.726562 1.265625 -6.75 Z M 3.8125 -6.75 C 3.8125 -6.050781 3.925781 -5.40625 4.15625 -4.8125 C 4.382812 -4.226562 4.703125 -3.722656 5.109375 -3.296875 C 5.523438 -2.878906 6.019531 -2.550781 6.59375 -2.3125 C 7.164062 -2.070312 7.789062 -1.953125 8.46875 -1.953125 C 9.144531 -1.953125 9.769531 -2.066406 10.34375 -2.296875 C 10.914062 -2.523438 11.40625 -2.847656 11.8125 -3.265625 C 12.226562 -3.691406 12.550781 -4.195312 12.78125 -4.78125 C 13.007812 -5.375 13.125 -6.03125 13.125 -6.75 C 13.125 -7.457031 13.007812 -8.101562 12.78125 -8.6875 C 12.550781 -9.28125 12.226562 -9.785156 11.8125 -10.203125 C 11.40625 -10.628906 10.914062 -10.960938 10.34375 -11.203125 C 9.769531 -11.441406 9.144531 -11.5625 8.46875 -11.5625 C 7.8125 -11.5625 7.195312 -11.445312 6.625 -11.21875 C 6.050781 -10.988281 5.554688 -10.660156 5.140625 -10.234375 C 4.734375 -9.816406 4.410156 -9.3125 4.171875 -8.71875 C 3.929688 -8.132812 3.8125 -7.476562 3.8125 -6.75 Z M 3.8125 -6.75 "/></g></g></g><g fill="#000000" fill-opacity="1"><g transform="translate(830.293684, 600.772838)"><g><path d="M 2.15625 -13.515625 L 4.5625 -13.515625 L 4.5625 -11.921875 C 5.019531 -12.460938 5.664062 -12.910156 6.5 -13.265625 C 7.332031 -13.628906 8.21875 -13.8125 9.15625 -13.8125 C 10.113281 -13.8125 10.976562 -13.640625 11.75 -13.296875 C 12.519531 -12.960938 13.175781 -12.492188 13.71875 -11.890625 C 14.257812 -11.285156 14.675781 -10.5625 14.96875 -9.71875 C 15.257812 -8.882812 15.40625 -7.96875 15.40625 -6.96875 C 15.40625 -5.945312 15.238281 -4.988281 14.90625 -4.09375 C 14.582031 -3.207031 14.109375 -2.4375 13.484375 -1.78125 C 12.859375 -1.132812 12.113281 -0.625 11.25 -0.25 C 10.394531 0.113281 9.4375 0.296875 8.375 0.296875 C 7.65625 0.296875 6.957031 0.21875 6.28125 0.0625 C 5.613281 -0.0820312 5.039062 -0.3125 4.5625 -0.625 L 4.5625 6 L 2.15625 6 Z M 8.46875 -11.5625 C 7.664062 -11.5625 6.921875 -11.378906 6.234375 -11.015625 C 5.546875 -10.660156 4.988281 -10.222656 4.5625 -9.703125 L 4.5625 -3 C 5.164062 -2.601562 5.753906 -2.328125 6.328125 -2.171875 C 6.910156 -2.023438 7.523438 -1.953125 8.171875 -1.953125 C 8.890625 -1.953125 9.535156 -2.078125 10.109375 -2.328125 C 10.691406 -2.578125 11.179688 -2.914062 11.578125 -3.34375 C 11.984375 -3.78125 12.296875 -4.296875 12.515625 -4.890625 C 12.742188 -5.492188 12.859375 -6.15625 12.859375 -6.875 C 12.859375 -7.550781 12.757812 -8.175781 12.5625 -8.75 C 12.375 -9.320312 12.085938 -9.816406 11.703125 -10.234375 C 11.328125 -10.660156 10.867188 -10.988281 10.328125 -11.21875 C 9.785156 -11.445312 9.164062 -11.5625 8.46875 -11.5625 Z M 8.46875 -11.5625 "/></g></g></g><g fill="#000000" fill-opacity="1"><g transform="translate(846.986677, 600.772838)"><g><path d="M 13.578125 -1.46875 C 12.910156 -0.875 12.117188 -0.429688 11.203125 -0.140625 C 10.296875 0.148438 9.394531 0.296875 8.5 0.296875 C 7.394531 0.296875 6.394531 0.132812 5.5 -0.1875 C 4.613281 -0.519531 3.851562 -0.992188 3.21875 -1.609375 C 2.59375 -2.234375 2.109375 -2.984375 1.765625 -3.859375 C 1.429688 -4.734375 1.265625 -5.695312 1.265625 -6.75 C 1.265625 -7.738281 1.414062 -8.660156 1.71875 -9.515625 C 2.03125 -10.378906 2.484375 -11.125 3.078125 -11.75 C 3.671875 -12.382812 4.394531 -12.882812 5.25 -13.25 C 6.113281 -13.625 7.109375 -13.8125 8.234375 -13.8125 C 9.085938 -13.8125 9.898438 -13.660156 10.671875 -13.359375 C 11.441406 -13.054688 12.109375 -12.632812 12.671875 -12.09375 C 13.234375 -11.5625 13.675781 -10.914062 14 -10.15625 C 14.332031 -9.394531 14.5 -8.550781 14.5 -7.625 C 14.5 -7.007812 14.453125 -6.46875 14.359375 -6 L 3.96875 -6 C 4.0625 -4.71875 4.539062 -3.722656 5.40625 -3.015625 C 6.269531 -2.304688 7.359375 -1.953125 8.671875 -1.953125 C 9.554688 -1.953125 10.359375 -2.085938 11.078125 -2.359375 C 11.796875 -2.628906 12.378906 -2.960938 12.828125 -3.359375 Z M 8.109375 -11.5625 C 6.867188 -11.5625 5.878906 -11.21875 5.140625 -10.53125 C 4.398438 -9.851562 3.957031 -8.992188 3.8125 -7.953125 L 12.015625 -7.953125 C 11.953125 -9.078125 11.578125 -9.957031 10.890625 -10.59375 C 10.210938 -11.238281 9.285156 -11.5625 8.109375 -11.5625 Z M 8.109375 -11.5625 "/></g></g></g><g fill="#000000" fill-opacity="1"><g transform="translate(862.598843, 600.772838)"><g><path d="M 2.15625 -13.515625 L 4.5625 -13.515625 L 4.5625 -11.921875 C 4.90625 -12.441406 5.34375 -12.875 5.875 -13.21875 C 6.40625 -13.570312 7.097656 -13.75 7.953125 -13.75 C 8.515625 -13.75 8.953125 -13.703125 9.265625 -13.609375 C 9.578125 -13.523438 9.84375 -13.40625 10.0625 -13.25 L 9.21875 -10.984375 C 8.875 -11.191406 8.582031 -11.328125 8.34375 -11.390625 C 8.101562 -11.460938 7.785156 -11.5 7.390625 -11.5 C 6.609375 -11.5 6.003906 -11.300781 5.578125 -10.90625 C 5.160156 -10.519531 4.820312 -10.078125 4.5625 -9.578125 L 4.5625 0 L 2.15625 0 Z M 2.15625 -13.515625 "/></g></g></g><g fill="#000000" fill-opacity="1"><g transform="translate(872.806789, 600.772838)"><g><path d="M 2.25 -12.578125 C 2.851562 -12.960938 3.546875 -13.265625 4.328125 -13.484375 C 5.109375 -13.703125 5.914062 -13.8125 6.75 -13.8125 C 8.675781 -13.8125 10.023438 -13.332031 10.796875 -12.375 C 11.566406 -11.414062 11.953125 -10.050781 11.953125 -8.28125 L 11.953125 0 L 9.671875 0 L 9.671875 -1.734375 C 9.265625 -1.222656 8.722656 -0.769531 8.046875 -0.375 C 7.367188 0.0078125 6.46875 0.203125 5.34375 0.203125 C 4.101562 0.203125 3.101562 -0.160156 2.34375 -0.890625 C 1.582031 -1.617188 1.203125 -2.644531 1.203125 -3.96875 C 1.203125 -4.644531 1.332031 -5.253906 1.59375 -5.796875 C 1.851562 -6.335938 2.207031 -6.785156 2.65625 -7.140625 C 3.101562 -7.503906 3.640625 -7.78125 4.265625 -7.96875 C 4.898438 -8.164062 5.582031 -8.265625 6.3125 -8.265625 C 6.832031 -8.265625 7.40625 -8.203125 8.03125 -8.078125 C 8.664062 -7.953125 9.210938 -7.722656 9.671875 -7.390625 C 9.671875 -8.003906 9.632812 -8.578125 9.5625 -9.109375 C 9.488281 -9.640625 9.347656 -10.085938 9.140625 -10.453125 C 8.929688 -10.828125 8.617188 -11.117188 8.203125 -11.328125 C 7.796875 -11.546875 7.265625 -11.65625 6.609375 -11.65625 C 5.765625 -11.65625 5.066406 -11.554688 4.515625 -11.359375 C 3.960938 -11.171875 3.421875 -10.9375 2.890625 -10.65625 Z M 6.1875 -1.953125 C 7.0625 -1.953125 7.773438 -2.140625 8.328125 -2.515625 C 8.878906 -2.898438 9.328125 -3.289062 9.671875 -3.6875 L 9.671875 -5.40625 C 8.828125 -6.007812 7.816406 -6.3125 6.640625 -6.3125 C 6.273438 -6.3125 5.914062 -6.265625 5.5625 -6.171875 C 5.21875 -6.078125 4.910156 -5.941406 4.640625 -5.765625 C 4.367188 -5.585938 4.148438 -5.359375 3.984375 -5.078125 C 3.828125 -4.796875 3.75 -4.460938 3.75 -4.078125 C 3.75 -3.441406 3.957031 -2.925781 4.375 -2.53125 C 4.800781 -2.144531 5.40625 -1.953125 6.1875 -1.953125 Z M 6.1875 -1.953125 "/></g></g></g></svg>